<mxfile host="app.diagrams.net" modified="2023-07-17T11:00:26.037Z" agent="Mozilla/5.0 (Macintosh; Intel Mac OS X 10_15_7) AppleWebKit/537.36 (KHTML, like Gecko) Chrome/114.0.0.0 Safari/537.36" etag="D1iAXpvm7MSoHDSsTQ_6" version="21.4.0" type="google">
  <diagram name="Seite-1" id="6m62z-WQ6obi24l97gur">
    <mxGraphModel grid="1" page="1" gridSize="10" guides="1" tooltips="1" connect="1" arrows="1" fold="1" pageScale="1" pageWidth="827" pageHeight="1169" math="0" shadow="0">
      <root>
        <mxCell id="0" />
        <mxCell id="1" parent="0" />
        <mxCell id="NzcvpL-A5vDIkRrhB_2R-41" value="" style="rounded=0;whiteSpace=wrap;html=1;" vertex="1" parent="1">
          <mxGeometry x="335" y="1380" width="320" height="280" as="geometry" />
        </mxCell>
        <mxCell id="NzcvpL-A5vDIkRrhB_2R-7" value="User" style="shape=umlActor;verticalLabelPosition=bottom;verticalAlign=top;html=1;outlineConnect=0;" vertex="1" parent="1">
          <mxGeometry x="25" y="1210" width="30" height="60" as="geometry" />
        </mxCell>
        <mxCell id="NzcvpL-A5vDIkRrhB_2R-10" value="Slack API" style="rounded=1;whiteSpace=wrap;html=1;" vertex="1" parent="1">
          <mxGeometry x="100" y="1215" width="120" height="50" as="geometry" />
        </mxCell>
        <mxCell id="NzcvpL-A5vDIkRrhB_2R-32" value="" style="endArrow=none;html=1;rounded=0;exitX=-0.016;exitY=0.481;exitDx=0;exitDy=0;exitPerimeter=0;" edge="1" parent="1" source="NzcvpL-A5vDIkRrhB_2R-10" target="NzcvpL-A5vDIkRrhB_2R-7">
          <mxGeometry width="50" height="50" relative="1" as="geometry">
            <mxPoint x="100" y="1525" as="sourcePoint" />
            <mxPoint x="150" y="1475" as="targetPoint" />
          </mxGeometry>
        </mxCell>
        <mxCell id="NzcvpL-A5vDIkRrhB_2R-39" value="" style="rounded=0;whiteSpace=wrap;html=1;" vertex="1" parent="1">
          <mxGeometry x="20" y="1390" width="200" height="130" as="geometry" />
        </mxCell>
        <mxCell id="NzcvpL-A5vDIkRrhB_2R-40" value="slack-bot&lt;br&gt;GCloud VM" style="text;html=1;strokeColor=none;fillColor=none;align=center;verticalAlign=middle;whiteSpace=wrap;rounded=0;" vertex="1" parent="1">
          <mxGeometry x="140" y="1393" width="80" height="30" as="geometry" />
        </mxCell>
        <mxCell id="NzcvpL-A5vDIkRrhB_2R-59" style="edgeStyle=orthogonalEdgeStyle;rounded=0;orthogonalLoop=1;jettySize=auto;html=1;entryX=1;entryY=0.5;entryDx=0;entryDy=0;endArrow=none;endFill=0;exitX=0.671;exitY=0.986;exitDx=0;exitDy=0;exitPerimeter=0;" edge="1" parent="1" source="NzcvpL-A5vDIkRrhB_2R-45" target="NzcvpL-A5vDIkRrhB_2R-43">
          <mxGeometry relative="1" as="geometry">
            <Array as="points">
              <mxPoint x="495" y="1499" />
              <mxPoint x="495" y="1680" />
              <mxPoint x="610" y="1680" />
              <mxPoint x="610" y="1770" />
            </Array>
          </mxGeometry>
        </mxCell>
        <mxCell id="NzcvpL-A5vDIkRrhB_2R-42" value="qa-bot&lt;br&gt;GCloud VM" style="text;html=1;strokeColor=none;fillColor=none;align=center;verticalAlign=middle;whiteSpace=wrap;rounded=0;" vertex="1" parent="1">
          <mxGeometry x="580" y="1382" width="75" height="30" as="geometry" />
        </mxCell>
        <mxCell id="NzcvpL-A5vDIkRrhB_2R-43" value="" style="rounded=0;whiteSpace=wrap;html=1;" vertex="1" parent="1">
          <mxGeometry x="20" y="1758" width="510" height="160" as="geometry" />
        </mxCell>
        <mxCell id="NzcvpL-A5vDIkRrhB_2R-44" value="data_processing&lt;br&gt;GCloud VM" style="text;html=1;strokeColor=none;fillColor=none;align=center;verticalAlign=middle;whiteSpace=wrap;rounded=0;" vertex="1" parent="1">
          <mxGeometry x="445" y="1762" width="76" height="30" as="geometry" />
        </mxCell>
        <mxCell id="NzcvpL-A5vDIkRrhB_2R-45" value="QABot API" style="rounded=1;whiteSpace=wrap;html=1;verticalAlign=middle;fillColor=#ffe6cc;strokeColor=#d79b00;" vertex="1" parent="1">
          <mxGeometry x="404" y="1430" width="140" height="70" as="geometry" />
        </mxCell>
        <mxCell id="NzcvpL-A5vDIkRrhB_2R-46" value="Vectors&amp;nbsp;&lt;br&gt;Store" style="shape=cylinder3;whiteSpace=wrap;html=1;boundedLbl=1;backgroundOutline=1;size=15;" vertex="1" parent="1">
          <mxGeometry x="395" y="1550" width="60" height="80" as="geometry" />
        </mxCell>
        <mxCell id="NzcvpL-A5vDIkRrhB_2R-47" value="Vectors&amp;nbsp;&lt;br&gt;Store" style="shape=cylinder3;whiteSpace=wrap;html=1;boundedLbl=1;backgroundOutline=1;size=15;" vertex="1" parent="1">
          <mxGeometry x="315" y="1768" width="60" height="80" as="geometry" />
        </mxCell>
        <mxCell id="NzcvpL-A5vDIkRrhB_2R-48" value="Data Processing" style="rounded=1;whiteSpace=wrap;html=1;fillColor=#fff2cc;strokeColor=#d6b656;" vertex="1" parent="1">
          <mxGeometry x="65" y="1808" width="120" height="60" as="geometry" />
        </mxCell>
        <mxCell id="NzcvpL-A5vDIkRrhB_2R-49" value="Confluence API" style="rounded=1;whiteSpace=wrap;html=1;" vertex="1" parent="1">
          <mxGeometry x="230" y="1978" width="120" height="60" as="geometry" />
        </mxCell>
        <mxCell id="NzcvpL-A5vDIkRrhB_2R-50" value="Google Drive API" style="rounded=1;whiteSpace=wrap;html=1;" vertex="1" parent="1">
          <mxGeometry x="55" y="1978" width="120" height="60" as="geometry" />
        </mxCell>
        <mxCell id="NzcvpL-A5vDIkRrhB_2R-51" value="" style="rounded=0;orthogonalLoop=1;jettySize=auto;html=1;endArrow=none;endFill=0;sketch=0;sourcePerimeterSpacing=0;targetPerimeterSpacing=0;exitX=0.5;exitY=0;exitDx=0;exitDy=0;" edge="1" parent="1" source="NzcvpL-A5vDIkRrhB_2R-50" target="NzcvpL-A5vDIkRrhB_2R-52">
          <mxGeometry relative="1" as="geometry">
            <mxPoint x="540" y="1823" as="sourcePoint" />
            <mxPoint x="540" y="1888" as="targetPoint" />
            <Array as="points" />
          </mxGeometry>
        </mxCell>
        <mxCell id="NzcvpL-A5vDIkRrhB_2R-53" value="" style="rounded=0;orthogonalLoop=1;jettySize=auto;html=1;endArrow=none;endFill=0;sketch=0;sourcePerimeterSpacing=0;targetPerimeterSpacing=0;exitX=0.5;exitY=0;exitDx=0;exitDy=0;" edge="1" parent="1" source="NzcvpL-A5vDIkRrhB_2R-49" target="NzcvpL-A5vDIkRrhB_2R-54">
          <mxGeometry relative="1" as="geometry">
            <mxPoint x="540" y="1823" as="sourcePoint" />
          </mxGeometry>
        </mxCell>
        <mxCell id="NzcvpL-A5vDIkRrhB_2R-54" value="" style="ellipse;whiteSpace=wrap;html=1;align=center;aspect=fixed;resizable=0;points=[];outlineConnect=0;sketch=0;" vertex="1" parent="1">
          <mxGeometry x="285" y="1948" width="10" height="10" as="geometry" />
        </mxCell>
        <mxCell id="NzcvpL-A5vDIkRrhB_2R-55" value="DeepL API" style="rounded=1;whiteSpace=wrap;html=1;" vertex="1" parent="1">
          <mxGeometry x="680" y="1808" width="120" height="60" as="geometry" />
        </mxCell>
        <mxCell id="NzcvpL-A5vDIkRrhB_2R-56" value="" style="rounded=0;orthogonalLoop=1;jettySize=auto;html=1;endArrow=none;endFill=0;sketch=0;sourcePerimeterSpacing=0;targetPerimeterSpacing=0;exitX=0;exitY=0.5;exitDx=0;exitDy=0;" edge="1" parent="1" source="NzcvpL-A5vDIkRrhB_2R-55" target="NzcvpL-A5vDIkRrhB_2R-57">
          <mxGeometry relative="1" as="geometry">
            <mxPoint x="390" y="1773" as="sourcePoint" />
          </mxGeometry>
        </mxCell>
        <mxCell id="NzcvpL-A5vDIkRrhB_2R-57" value="" style="ellipse;whiteSpace=wrap;html=1;align=center;aspect=fixed;resizable=0;points=[];outlineConnect=0;sketch=0;" vertex="1" parent="1">
          <mxGeometry x="625" y="1833" width="10" height="10" as="geometry" />
        </mxCell>
        <mxCell id="NzcvpL-A5vDIkRrhB_2R-6" value="SlackBot" style="rounded=1;whiteSpace=wrap;html=1;verticalAlign=middle;arcSize=16;fillColor=#e1d5e7;strokeColor=#9673a6;" vertex="1" parent="1">
          <mxGeometry x="45" y="1428" width="140" height="74" as="geometry" />
        </mxCell>
        <mxCell id="NzcvpL-A5vDIkRrhB_2R-58" value="" style="rounded=0;orthogonalLoop=1;jettySize=auto;html=1;endArrow=halfCircle;endFill=0;endSize=6;strokeWidth=1;sketch=0;exitX=1;exitY=0.5;exitDx=0;exitDy=0;" edge="1" parent="1" source="NzcvpL-A5vDIkRrhB_2R-48" target="NzcvpL-A5vDIkRrhB_2R-57">
          <mxGeometry relative="1" as="geometry">
            <mxPoint x="542" y="1042" as="sourcePoint" />
            <mxPoint x="545" y="1138" as="targetPoint" />
            <Array as="points">
              <mxPoint x="260" y="1838" />
              <mxPoint x="260" y="1868" />
              <mxPoint x="400" y="1868" />
              <mxPoint x="400" y="1838" />
            </Array>
          </mxGeometry>
        </mxCell>
        <mxCell id="NzcvpL-A5vDIkRrhB_2R-61" value="" style="rounded=0;orthogonalLoop=1;jettySize=auto;html=1;endArrow=halfCircle;endFill=0;endSize=6;strokeWidth=1;sketch=0;exitX=0.624;exitY=0.988;exitDx=0;exitDy=0;exitPerimeter=0;entryX=0.5;entryY=0.5;entryDx=0;entryDy=0;entryPerimeter=0;" edge="1" parent="1" source="NzcvpL-A5vDIkRrhB_2R-48" target="NzcvpL-A5vDIkRrhB_2R-54">
          <mxGeometry relative="1" as="geometry">
            <mxPoint x="141.68000000000006" y="1868" as="sourcePoint" />
            <mxPoint x="280" y="1953" as="targetPoint" />
            <Array as="points">
              <mxPoint x="140" y="1953.06" />
            </Array>
          </mxGeometry>
        </mxCell>
        <mxCell id="NzcvpL-A5vDIkRrhB_2R-64" value="" style="rounded=0;orthogonalLoop=1;jettySize=auto;html=1;endArrow=halfCircle;endFill=0;endSize=6;strokeWidth=1;sketch=0;exitX=1;exitY=0.25;exitDx=0;exitDy=0;" edge="1" parent="1" source="NzcvpL-A5vDIkRrhB_2R-48" target="NzcvpL-A5vDIkRrhB_2R-71">
          <mxGeometry relative="1" as="geometry">
            <mxPoint x="280" y="1818" as="sourcePoint" />
            <Array as="points">
              <mxPoint x="240" y="1823" />
              <mxPoint x="240" y="1813" />
            </Array>
            <mxPoint x="230" y="1828" as="targetPoint" />
          </mxGeometry>
        </mxCell>
        <mxCell id="NzcvpL-A5vDIkRrhB_2R-65" value="create vector" style="edgeLabel;html=1;align=center;verticalAlign=middle;resizable=0;points=[];" vertex="1" connectable="0" parent="NzcvpL-A5vDIkRrhB_2R-64">
          <mxGeometry x="-0.2833" y="-1" relative="1" as="geometry">
            <mxPoint x="5" y="-20" as="offset" />
          </mxGeometry>
        </mxCell>
        <mxCell id="Bbergy8wYXS-xnqkbWnB-7" value="" style="rounded=0;orthogonalLoop=1;jettySize=auto;html=1;endArrow=halfCircle;endFill=0;endSize=6;strokeWidth=1;sketch=0;exitX=0.998;exitY=0.619;exitDx=0;exitDy=0;exitPerimeter=0;" edge="1" parent="1" source="NzcvpL-A5vDIkRrhB_2R-6">
          <mxGeometry relative="1" as="geometry">
            <mxPoint x="194.99999999999997" y="1463.1860000000004" as="sourcePoint" />
            <mxPoint x="272.66" y="1474.81" as="targetPoint" />
          </mxGeometry>
        </mxCell>
        <mxCell id="NzcvpL-A5vDIkRrhB_2R-72" value="" style="rounded=0;orthogonalLoop=1;jettySize=auto;html=1;endArrow=none;endFill=0;sketch=0;sourcePerimeterSpacing=0;targetPerimeterSpacing=0;exitX=-0.01;exitY=0.566;exitDx=0;exitDy=0;exitPerimeter=0;" edge="1" parent="1" source="NzcvpL-A5vDIkRrhB_2R-47" target="NzcvpL-A5vDIkRrhB_2R-71">
          <mxGeometry relative="1" as="geometry">
            <mxPoint x="185" y="1823" as="sourcePoint" />
            <mxPoint x="220" y="1818" as="targetPoint" />
          </mxGeometry>
        </mxCell>
        <mxCell id="NzcvpL-A5vDIkRrhB_2R-71" value="" style="ellipse;whiteSpace=wrap;html=1;align=center;aspect=fixed;resizable=0;points=[];outlineConnect=0;sketch=0;" vertex="1" parent="1">
          <mxGeometry x="270" y="1808" width="10" height="10" as="geometry" />
        </mxCell>
        <mxCell id="NzcvpL-A5vDIkRrhB_2R-73" value="" style="rounded=0;orthogonalLoop=1;jettySize=auto;html=1;endArrow=none;endFill=0;sketch=0;sourcePerimeterSpacing=0;targetPerimeterSpacing=0;exitX=-0.002;exitY=0.65;exitDx=0;exitDy=0;exitPerimeter=0;" edge="1" parent="1" source="NzcvpL-A5vDIkRrhB_2R-45" target="NzcvpL-A5vDIkRrhB_2R-74">
          <mxGeometry relative="1" as="geometry">
            <mxPoint x="320" y="1520" as="sourcePoint" />
          </mxGeometry>
        </mxCell>
        <mxCell id="NzcvpL-A5vDIkRrhB_2R-74" value="" style="ellipse;whiteSpace=wrap;html=1;align=center;aspect=fixed;resizable=0;points=[];outlineConnect=0;sketch=0;" vertex="1" parent="1">
          <mxGeometry x="270" y="1470" width="10" height="10" as="geometry" />
        </mxCell>
        <mxCell id="NzcvpL-A5vDIkRrhB_2R-75" value="" style="rounded=0;orthogonalLoop=1;jettySize=auto;html=1;endArrow=none;endFill=0;sketch=0;sourcePerimeterSpacing=0;targetPerimeterSpacing=0;exitX=0;exitY=1;exitDx=0;exitDy=-15;exitPerimeter=0;" edge="1" parent="1" source="NzcvpL-A5vDIkRrhB_2R-46" target="NzcvpL-A5vDIkRrhB_2R-78">
          <mxGeometry relative="1" as="geometry">
            <mxPoint x="235" y="905" as="sourcePoint" />
          </mxGeometry>
        </mxCell>
        <mxCell id="NzcvpL-A5vDIkRrhB_2R-76" value="" style="rounded=0;orthogonalLoop=1;jettySize=auto;html=1;endArrow=halfCircle;endFill=0;endSize=6;strokeWidth=1;sketch=0;exitX=-0.003;exitY=0.859;exitDx=0;exitDy=0;exitPerimeter=0;" edge="1" parent="1" source="NzcvpL-A5vDIkRrhB_2R-45" target="NzcvpL-A5vDIkRrhB_2R-78">
          <mxGeometry relative="1" as="geometry">
            <mxPoint x="450" y="810" as="sourcePoint" />
            <Array as="points">
              <mxPoint x="360" y="1490" />
            </Array>
          </mxGeometry>
        </mxCell>
        <mxCell id="NzcvpL-A5vDIkRrhB_2R-77" value="query vector" style="edgeLabel;html=1;align=center;verticalAlign=middle;resizable=0;points=[];" vertex="1" connectable="0" parent="NzcvpL-A5vDIkRrhB_2R-76">
          <mxGeometry x="0.3764" y="1" relative="1" as="geometry">
            <mxPoint x="14" y="-29" as="offset" />
          </mxGeometry>
        </mxCell>
        <mxCell id="NzcvpL-A5vDIkRrhB_2R-78" value="" style="ellipse;whiteSpace=wrap;html=1;align=center;aspect=fixed;resizable=0;points=[];outlineConnect=0;sketch=0;" vertex="1" parent="1">
          <mxGeometry x="355" y="1610" width="10" height="10" as="geometry" />
        </mxCell>
        <mxCell id="Bbergy8wYXS-xnqkbWnB-20" value="" style="rounded=0;orthogonalLoop=1;jettySize=auto;html=1;endArrow=none;endFill=0;sketch=0;sourcePerimeterSpacing=0;targetPerimeterSpacing=0;" edge="1" parent="1" target="Bbergy8wYXS-xnqkbWnB-21">
          <mxGeometry relative="1" as="geometry">
            <mxPoint x="184.99992284130542" y="1452.997777349118" as="sourcePoint" />
            <mxPoint x="324" y="1453.97" as="targetPoint" />
          </mxGeometry>
        </mxCell>
        <mxCell id="Bbergy8wYXS-xnqkbWnB-26" value="answer" style="edgeLabel;html=1;align=center;verticalAlign=middle;resizable=0;points=[];" connectable="0" vertex="1" parent="Bbergy8wYXS-xnqkbWnB-20">
          <mxGeometry x="-0.3629" relative="1" as="geometry">
            <mxPoint x="28" y="-13" as="offset" />
          </mxGeometry>
        </mxCell>
        <mxCell id="Bbergy8wYXS-xnqkbWnB-23" value="" style="rounded=0;orthogonalLoop=1;jettySize=auto;html=1;endArrow=halfCircle;endFill=0;endSize=6;strokeWidth=1;sketch=0;exitX=0.004;exitY=0.34;exitDx=0;exitDy=0;exitPerimeter=0;" edge="1" parent="1" source="NzcvpL-A5vDIkRrhB_2R-45" target="Bbergy8wYXS-xnqkbWnB-21">
          <mxGeometry relative="1" as="geometry">
            <mxPoint x="366" y="1453.9799999999998" as="sourcePoint" />
            <mxPoint x="278" y="1454" as="targetPoint" />
          </mxGeometry>
        </mxCell>
        <mxCell id="Bbergy8wYXS-xnqkbWnB-21" value="" style="ellipse;whiteSpace=wrap;html=1;align=center;aspect=fixed;resizable=0;points=[];outlineConnect=0;sketch=0;" vertex="1" parent="1">
          <mxGeometry x="270" y="1449" width="10" height="10" as="geometry" />
        </mxCell>
        <mxCell id="Bbergy8wYXS-xnqkbWnB-27" value="question" style="edgeLabel;html=1;align=center;verticalAlign=middle;resizable=0;points=[];" connectable="0" vertex="1" parent="1">
          <mxGeometry x="305.0011314224571" y="1490.0001884604073" as="geometry" />
        </mxCell>
        <mxCell id="NzcvpL-A5vDIkRrhB_2R-82" value="GCloud&lt;br&gt;Bucket" style="shape=cylinder3;whiteSpace=wrap;html=1;boundedLbl=1;backgroundOutline=1;size=15;" vertex="1" parent="1">
          <mxGeometry x="90" y="1575" width="60" height="80" as="geometry" />
        </mxCell>
        <mxCell id="NzcvpL-A5vDIkRrhB_2R-83" value="" style="rounded=0;orthogonalLoop=1;jettySize=auto;html=1;endArrow=none;endFill=0;sketch=0;sourcePerimeterSpacing=0;targetPerimeterSpacing=0;exitX=1;exitY=0;exitDx=0;exitDy=52.5;exitPerimeter=0;" edge="1" parent="1" source="NzcvpL-A5vDIkRrhB_2R-82">
          <mxGeometry relative="1" as="geometry">
            <mxPoint x="220" y="1675" as="sourcePoint" />
            <mxPoint x="220" y="1630" as="targetPoint" />
            <Array as="points">
              <mxPoint x="220" y="1628" />
            </Array>
          </mxGeometry>
        </mxCell>
        <mxCell id="NzcvpL-A5vDIkRrhB_2R-84" value="" style="rounded=0;orthogonalLoop=1;jettySize=auto;html=1;endArrow=halfCircle;endFill=0;entryX=0.5;entryY=0.5;endSize=6;strokeWidth=1;sketch=0;exitX=0.004;exitY=0.885;exitDx=0;exitDy=0;exitPerimeter=0;" edge="1" parent="1" source="NzcvpL-A5vDIkRrhB_2R-41" target="NzcvpL-A5vDIkRrhB_2R-85">
          <mxGeometry relative="1" as="geometry">
            <mxPoint x="330" y="1620" as="sourcePoint" />
          </mxGeometry>
        </mxCell>
        <mxCell id="NzcvpL-A5vDIkRrhB_2R-92" value="&lt;div&gt;download&lt;/div&gt;" style="edgeLabel;html=1;align=center;verticalAlign=middle;resizable=0;points=[];" vertex="1" connectable="0" parent="NzcvpL-A5vDIkRrhB_2R-84">
          <mxGeometry x="0.5384" y="-1" relative="1" as="geometry">
            <mxPoint x="29" y="-11" as="offset" />
          </mxGeometry>
        </mxCell>
        <mxCell id="NzcvpL-A5vDIkRrhB_2R-85" value="" style="ellipse;whiteSpace=wrap;html=1;align=center;aspect=fixed;resizable=0;points=[];outlineConnect=0;sketch=0;" vertex="1" parent="1">
          <mxGeometry x="220" y="1623" width="10" height="10" as="geometry" />
        </mxCell>
        <mxCell id="NzcvpL-A5vDIkRrhB_2R-86" value="" style="rounded=0;orthogonalLoop=1;jettySize=auto;html=1;endArrow=none;endFill=0;sketch=0;sourcePerimeterSpacing=0;targetPerimeterSpacing=0;entryX=0.5;entryY=1;entryDx=0;entryDy=0;entryPerimeter=0;" edge="1" parent="1" target="NzcvpL-A5vDIkRrhB_2R-82">
          <mxGeometry relative="1" as="geometry">
            <mxPoint x="120" y="1700" as="sourcePoint" />
          </mxGeometry>
        </mxCell>
        <mxCell id="NzcvpL-A5vDIkRrhB_2R-87" value="" style="rounded=0;orthogonalLoop=1;jettySize=auto;html=1;endArrow=halfCircle;endFill=0;entryX=0.5;entryY=0.5;endSize=6;strokeWidth=1;sketch=0;exitX=0.197;exitY=-0.008;exitDx=0;exitDy=0;exitPerimeter=0;" edge="1" parent="1" source="NzcvpL-A5vDIkRrhB_2R-43" target="NzcvpL-A5vDIkRrhB_2R-88">
          <mxGeometry relative="1" as="geometry">
            <mxPoint x="370" y="1705" as="sourcePoint" />
          </mxGeometry>
        </mxCell>
        <mxCell id="NzcvpL-A5vDIkRrhB_2R-91" value="upload&amp;nbsp;DB" style="edgeLabel;html=1;align=center;verticalAlign=middle;resizable=0;points=[];" vertex="1" connectable="0" parent="NzcvpL-A5vDIkRrhB_2R-87">
          <mxGeometry x="0.0291" y="-1" relative="1" as="geometry">
            <mxPoint x="29" as="offset" />
          </mxGeometry>
        </mxCell>
        <mxCell id="NzcvpL-A5vDIkRrhB_2R-88" value="" style="ellipse;whiteSpace=wrap;html=1;align=center;aspect=fixed;resizable=0;points=[];outlineConnect=0;sketch=0;" vertex="1" parent="1">
          <mxGeometry x="115" y="1700" width="10" height="10" as="geometry" />
        </mxCell>
        <mxCell id="NzcvpL-A5vDIkRrhB_2R-90" value="" style="rounded=0;orthogonalLoop=1;jettySize=auto;html=1;endArrow=halfCircle;endFill=0;endSize=6;strokeWidth=1;sketch=0;exitX=0.415;exitY=1.003;exitDx=0;exitDy=0;exitPerimeter=0;" edge="1" parent="1" source="NzcvpL-A5vDIkRrhB_2R-48" target="NzcvpL-A5vDIkRrhB_2R-52">
          <mxGeometry relative="1" as="geometry">
            <mxPoint x="115" y="1870" as="sourcePoint" />
            <mxPoint x="123.18" y="1948" as="targetPoint" />
          </mxGeometry>
        </mxCell>
        <mxCell id="NzcvpL-A5vDIkRrhB_2R-52" value="" style="ellipse;whiteSpace=wrap;html=1;align=center;aspect=fixed;resizable=0;points=[];outlineConnect=0;sketch=0;" vertex="1" parent="1">
          <mxGeometry x="110" y="1948" width="10" height="10" as="geometry" />
        </mxCell>
        <mxCell id="NzcvpL-A5vDIkRrhB_2R-93" value="" style="rounded=0;orthogonalLoop=1;jettySize=auto;html=1;endArrow=none;endFill=0;sketch=0;sourcePerimeterSpacing=0;targetPerimeterSpacing=0;exitX=0.5;exitY=1;exitDx=0;exitDy=0;" edge="1" parent="1" source="NzcvpL-A5vDIkRrhB_2R-10" target="NzcvpL-A5vDIkRrhB_2R-95">
          <mxGeometry relative="1" as="geometry">
            <mxPoint x="155" y="1265" as="sourcePoint" />
            <Array as="points">
              <mxPoint x="160" y="1310" />
              <mxPoint x="105" y="1310" />
            </Array>
          </mxGeometry>
        </mxCell>
        <mxCell id="NzcvpL-A5vDIkRrhB_2R-94" value="" style="rounded=0;orthogonalLoop=1;jettySize=auto;html=1;endArrow=halfCircle;endFill=0;endSize=6;strokeWidth=1;sketch=0;exitX=0.423;exitY=0.004;exitDx=0;exitDy=0;exitPerimeter=0;" edge="1" parent="1" source="NzcvpL-A5vDIkRrhB_2R-6">
          <mxGeometry relative="1" as="geometry">
            <mxPoint x="101.46000000000004" y="1423.7040000000002" as="sourcePoint" />
            <mxPoint x="105" y="1346" as="targetPoint" />
          </mxGeometry>
        </mxCell>
        <mxCell id="NzcvpL-A5vDIkRrhB_2R-95" value="" style="ellipse;whiteSpace=wrap;html=1;align=center;aspect=fixed;resizable=0;points=[];outlineConnect=0;sketch=0;" vertex="1" parent="1">
          <mxGeometry x="100" y="1340" width="10" height="10" as="geometry" />
        </mxCell>
        <mxCell id="Bbergy8wYXS-xnqkbWnB-33" value="Slack API" style="rounded=1;whiteSpace=wrap;html=1;" vertex="1" parent="1">
          <mxGeometry x="390" y="1978" width="120" height="60" as="geometry" />
        </mxCell>
        <mxCell id="Bbergy8wYXS-xnqkbWnB-34" value="" style="rounded=0;orthogonalLoop=1;jettySize=auto;html=1;endArrow=none;endFill=0;sketch=0;sourcePerimeterSpacing=0;targetPerimeterSpacing=0;exitX=0.5;exitY=0;exitDx=0;exitDy=0;" edge="1" parent="1" target="Bbergy8wYXS-xnqkbWnB-35">
          <mxGeometry relative="1" as="geometry">
            <mxPoint x="450" y="1978" as="sourcePoint" />
          </mxGeometry>
        </mxCell>
        <mxCell id="Bbergy8wYXS-xnqkbWnB-35" value="" style="ellipse;whiteSpace=wrap;html=1;align=center;aspect=fixed;resizable=0;points=[];outlineConnect=0;sketch=0;" vertex="1" parent="1">
          <mxGeometry x="445" y="1948" width="10" height="10" as="geometry" />
        </mxCell>
        <mxCell id="NzcvpL-A5vDIkRrhB_2R-97" value="" style="rounded=0;orthogonalLoop=1;jettySize=auto;html=1;endArrow=halfCircle;endFill=0;endSize=6;strokeWidth=1;sketch=0;" edge="1" parent="1" target="Bbergy8wYXS-xnqkbWnB-35">
          <mxGeometry relative="1" as="geometry">
            <mxPoint x="170" y="1870" as="sourcePoint" />
            <mxPoint x="300" y="1963" as="targetPoint" />
            <Array as="points">
              <mxPoint x="170" y="1930" />
              <mxPoint x="450" y="1930" />
            </Array>
          </mxGeometry>
        </mxCell>
      </root>
    </mxGraphModel>
  </diagram>
</mxfile>
